<mxfile host="app.diagrams.net" modified="2022-02-26T18:58:47.767Z" agent="5.0 (Macintosh)" etag="JxsNYXmBs4dfipw3YPU3" version="16.6.4" type="github">
  <diagram id="Pbzh9_7AI2XHzCLIpab5" name="Page-1">
    <mxGraphModel dx="2066" dy="1155" grid="1" gridSize="10" guides="1" tooltips="1" connect="1" arrows="1" fold="1" page="1" pageScale="1" pageWidth="850" pageHeight="1100" math="0" shadow="0">
      <root>
        <mxCell id="0" />
        <mxCell id="1" parent="0" />
        <mxCell id="bTnPtjO57g7JYjd8ViPB-9" style="edgeStyle=orthogonalEdgeStyle;rounded=0;orthogonalLoop=1;jettySize=auto;html=1;exitX=1;exitY=0.5;exitDx=0;exitDy=0;anchorPointDirection=0;endArrow=none;endFill=0;" parent="1" source="bTnPtjO57g7JYjd8ViPB-1" target="bTnPtjO57g7JYjd8ViPB-2" edge="1">
          <mxGeometry relative="1" as="geometry" />
        </mxCell>
        <mxCell id="bTnPtjO57g7JYjd8ViPB-1" value="A1" style="ellipse;whiteSpace=wrap;html=1;aspect=fixed;" parent="1" vertex="1">
          <mxGeometry x="90" y="500" width="80" height="80" as="geometry" />
        </mxCell>
        <mxCell id="bTnPtjO57g7JYjd8ViPB-10" style="rounded=0;orthogonalLoop=1;jettySize=auto;html=1;exitX=1;exitY=0.5;exitDx=0;exitDy=0;entryX=0;entryY=0.5;entryDx=0;entryDy=0;strokeColor=default;endArrow=none;endFill=0;" parent="1" source="bTnPtjO57g7JYjd8ViPB-2" target="bTnPtjO57g7JYjd8ViPB-3" edge="1">
          <mxGeometry relative="1" as="geometry" />
        </mxCell>
        <mxCell id="bTnPtjO57g7JYjd8ViPB-2" value="A2" style="ellipse;whiteSpace=wrap;html=1;aspect=fixed;" parent="1" vertex="1">
          <mxGeometry x="230" y="500" width="80" height="80" as="geometry" />
        </mxCell>
        <mxCell id="bTnPtjO57g7JYjd8ViPB-11" style="edgeStyle=orthogonalEdgeStyle;rounded=0;orthogonalLoop=1;jettySize=auto;html=1;exitX=1;exitY=0.5;exitDx=0;exitDy=0;entryX=0;entryY=0.5;entryDx=0;entryDy=0;endArrow=none;endFill=0;" parent="1" source="bTnPtjO57g7JYjd8ViPB-3" target="bTnPtjO57g7JYjd8ViPB-4" edge="1">
          <mxGeometry relative="1" as="geometry" />
        </mxCell>
        <mxCell id="bTnPtjO57g7JYjd8ViPB-12" style="edgeStyle=orthogonalEdgeStyle;rounded=0;orthogonalLoop=1;jettySize=auto;html=1;exitX=0.5;exitY=0;exitDx=0;exitDy=0;entryX=0.5;entryY=1;entryDx=0;entryDy=0;endArrow=none;endFill=0;" parent="1" source="bTnPtjO57g7JYjd8ViPB-3" target="bTnPtjO57g7JYjd8ViPB-5" edge="1">
          <mxGeometry relative="1" as="geometry" />
        </mxCell>
        <mxCell id="bTnPtjO57g7JYjd8ViPB-3" value="A3" style="ellipse;whiteSpace=wrap;html=1;aspect=fixed;" parent="1" vertex="1">
          <mxGeometry x="370" y="500" width="80" height="80" as="geometry" />
        </mxCell>
        <mxCell id="ewtQ4oaw_POuk0B5ObO0-1" style="edgeStyle=none;rounded=0;orthogonalLoop=1;jettySize=auto;html=1;exitX=1;exitY=0;exitDx=0;exitDy=0;fontSize=34;endArrow=classic;endFill=1;strokeColor=default;" edge="1" parent="1" source="bTnPtjO57g7JYjd8ViPB-4" target="bTnPtjO57g7JYjd8ViPB-7">
          <mxGeometry relative="1" as="geometry" />
        </mxCell>
        <mxCell id="bTnPtjO57g7JYjd8ViPB-4" value="A4" style="ellipse;whiteSpace=wrap;html=1;aspect=fixed;" parent="1" vertex="1">
          <mxGeometry x="510" y="500" width="80" height="80" as="geometry" />
        </mxCell>
        <mxCell id="bTnPtjO57g7JYjd8ViPB-13" style="edgeStyle=orthogonalEdgeStyle;rounded=0;orthogonalLoop=1;jettySize=auto;html=1;exitX=1;exitY=0.5;exitDx=0;exitDy=0;entryX=0;entryY=0.5;entryDx=0;entryDy=0;endArrow=none;endFill=0;" parent="1" source="bTnPtjO57g7JYjd8ViPB-5" target="bTnPtjO57g7JYjd8ViPB-6" edge="1">
          <mxGeometry relative="1" as="geometry" />
        </mxCell>
        <mxCell id="bTnPtjO57g7JYjd8ViPB-5" value="B1" style="ellipse;whiteSpace=wrap;html=1;aspect=fixed;" parent="1" vertex="1">
          <mxGeometry x="370" y="350" width="80" height="80" as="geometry" />
        </mxCell>
        <mxCell id="bTnPtjO57g7JYjd8ViPB-14" style="edgeStyle=orthogonalEdgeStyle;rounded=0;orthogonalLoop=1;jettySize=auto;html=1;exitX=1;exitY=0.5;exitDx=0;exitDy=0;entryX=0;entryY=0.5;entryDx=0;entryDy=0;endArrow=none;endFill=0;" parent="1" source="bTnPtjO57g7JYjd8ViPB-6" target="bTnPtjO57g7JYjd8ViPB-7" edge="1">
          <mxGeometry relative="1" as="geometry" />
        </mxCell>
        <mxCell id="bTnPtjO57g7JYjd8ViPB-6" value="B2" style="ellipse;whiteSpace=wrap;html=1;aspect=fixed;" parent="1" vertex="1">
          <mxGeometry x="510" y="350" width="80" height="80" as="geometry" />
        </mxCell>
        <mxCell id="bTnPtjO57g7JYjd8ViPB-7" value="B3" style="ellipse;whiteSpace=wrap;html=1;aspect=fixed;fillColor=#fff2cc;strokeColor=#d6b656;" parent="1" vertex="1">
          <mxGeometry x="650" y="350" width="80" height="80" as="geometry" />
        </mxCell>
        <mxCell id="3dmdywJe70AjDY3yU__v-1" value="&lt;font style=&quot;font-size: 34px&quot;&gt;&lt;font style=&quot;font-size: 34px&quot;&gt;Merge&lt;/font&gt;&lt;br&gt;&lt;/font&gt;" style="text;html=1;resizable=0;autosize=1;align=center;verticalAlign=middle;points=[];fillColor=none;strokeColor=none;rounded=0;" parent="1" vertex="1">
          <mxGeometry x="355" y="260" width="110" height="30" as="geometry" />
        </mxCell>
        <mxCell id="3dmdywJe70AjDY3yU__v-17" value="&quot;A&quot; branch" style="text;html=1;resizable=0;autosize=1;align=center;verticalAlign=middle;points=[];fillColor=none;strokeColor=none;rounded=0;fontSize=34;" parent="1" vertex="1">
          <mxGeometry x="630" y="515" width="180" height="50" as="geometry" />
        </mxCell>
        <mxCell id="3dmdywJe70AjDY3yU__v-18" value="&lt;div&gt;&quot;B&quot; branch&lt;/div&gt;&lt;div&gt;that is merged&lt;br&gt;&lt;/div&gt;" style="text;html=1;resizable=0;autosize=1;align=center;verticalAlign=middle;points=[];fillColor=none;strokeColor=none;rounded=0;fontSize=34;" parent="1" vertex="1">
          <mxGeometry x="725" y="345" width="230" height="90" as="geometry" />
        </mxCell>
      </root>
    </mxGraphModel>
  </diagram>
</mxfile>
